<svg xmlns="http://www.w3.org/2000/svg" viewBox="0 0 15.71 17.1"><title>icon-form-dark-address</title><g id="Layer_2" data-name="Layer 2"><g id="Layer_1-2" data-name="Layer 1"><path d="M14.72,15.08a1,1,0,0,1-1,1H11V9.34H5v6.73H2a1,1,0,0,1-.95-1V6.77A1,1,0,0,1,1.33,6h0l.09-.07,0,0,6.4-4.77,6.39,4.77,0,0,.09.06,0,0a1,1,0,0,1,.33.75Zm.39-9.77a.28.28,0,0,0-.1-.09l0,0-.16-.12L8.15.1a.48.48,0,0,0-.58,0l-6.68,5L.72,5.2l0,0a.38.38,0,0,0-.09.09A2,2,0,0,0,0,6.77v8.31a2,2,0,0,0,2,2H6.17V10.56H9.79V17.1h4a2,2,0,0,0,1.94-2V6.77A2.07,2.07,0,0,0,15.11,5.31Z" style="fill:#1c1f36;fill-rule:evenodd"/></g></g></svg>