<svg xmlns="http://www.w3.org/2000/svg" viewBox="0 0 20 19.94"><title>icon-form-dark-name</title><g id="Layer_2" data-name="Layer 2"><g id="Layer_1-2" data-name="Layer 1"><path d="M1.19,16.79c.18-3.56,2.07-5.71,5.62-6.4A.43.43,0,0,0,7,10.34,2.13,2.13,0,0,0,8.38,9.11a1.85,1.85,0,0,0-.3-1.65L8,7.34l-.05,0-.06,0A5.28,5.28,0,0,1,7,2.51,2.27,2.27,0,0,1,9.39,1.18a2.29,2.29,0,0,1,2.39,1.33,5.28,5.28,0,0,1-.86,4.72l-.08.08,0,0a.41.41,0,0,0-.1.13,1.88,1.88,0,0,0-.3,1.64,2.17,2.17,0,0,0,1.49,1.25l.08,0a9.07,9.07,0,0,1,2.08.65,5,5,0,0,1,1.69-.3h.13a9,9,0,0,0-3.64-1.5,1.19,1.19,0,0,1-.72-.51.74.74,0,0,1,.14-.57l.11-.1a6.48,6.48,0,0,0,1.1-6A3.4,3.4,0,0,0,9.39,0,3.42,3.42,0,0,0,5.92,2.05a6.52,6.52,0,0,0,1.1,6l.11.1a.72.72,0,0,1,.14.57c-.07.19-.34.37-.76.52C2.25,10.1,0,12.91,0,17.38A.59.59,0,0,0,.59,18h10.8A5.4,5.4,0,0,1,11,16.79Z" style="fill:#1c1f36"/><path d="M15.74,18.76a3.09,3.09,0,1,1,3.08-3.09A3.08,3.08,0,0,1,15.74,18.76Zm0-7.35A4.27,4.27,0,1,0,20,15.67,4.26,4.26,0,0,0,15.74,11.41Z" style="fill:#1c1f36;fill-rule:evenodd"/><polygon points="14.88 17.56 14.88 15.58 16.68 15.58 16.68 15.07 14.88 15.07 14.88 13.72 16.96 13.72 16.96 13.19 14.38 13.19 14.38 17.56 14.88 17.56" style="fill:#1c1f36;fill-rule:evenodd"/></g></g></svg>