<svg xmlns="http://www.w3.org/2000/svg" viewBox="0 0 18.57 19.95"><title>icon-form-dark-case</title><g id="Layer_2" data-name="Layer 2"><g id="Layer_1-2" data-name="Layer 1"><path d="M13.07,8.65a.55.55,0,0,0-.55-.56H6.26a.56.56,0,0,0,0,1.12h6.26A.55.55,0,0,0,13.07,8.65Z" style="fill:#1c1f36"/><path d="M6.26,10.6a.56.56,0,0,0,0,1.12h3.92a.56.56,0,0,0,0-1.12Z" style="fill:#1c1f36"/><path d="M15.36,1.12c.19.06.84.37.84,1.67a1.57,1.57,0,0,1-1.76,1.79H6.51a2.71,2.71,0,0,0,.3-1.3A3.5,3.5,0,0,0,6,1.12ZM4.15,16.92V3.84H5A1.13,1.13,0,0,0,5,2.72H3v8.4H1.11C1.06,8.71,1.18,3.6,2.3,1.91a1.65,1.65,0,0,1,1.64-.79H4c.83,0,1.75,1.13,1.75,2.16,0,.3-.08,1.27-1,1.3V5.69H14.79V12.4a1.34,1.34,0,0,1,.4.27l.71.72v-8a2.69,2.69,0,0,0,1.4-2.6C17.3.87,16.15.13,15.53,0H3.93A2.72,2.72,0,0,0,1.39,1.29C-.27,3.79,0,11.38,0,11.7a.55.55,0,0,0,.55.54H3V18H12.9l-1.1-1.11Z" style="fill:#1c1f36;fill-rule:evenodd"/><path d="M16.09,18.74,13,15.6l.64-.65.65-.66,3.09,3.14Zm-3.95-5.32,1.22.39-.84.85Zm6.29,3.65-3.79-3.84-.09-.07h0l-.09,0h0l-2.91-.93a.47.47,0,0,0-.49.12.53.53,0,0,0-.13.51l.92,2.94v0l0,.08v0l.07.09,3.79,3.84a.51.51,0,0,0,.35.15.53.53,0,0,0,.35-.15l2-2a.5.5,0,0,0,.14-.35A.52.52,0,0,0,18.43,17.07Z" style="fill:#1c1f36;fill-rule:evenodd"/></g></g></svg>