<svg xmlns="http://www.w3.org/2000/svg" viewBox="0 0 17.14 17.09"><title>icon-form-dark-phone</title><g id="Layer_2" data-name="Layer 2"><g id="Layer_1-2" data-name="Layer 1"><path d="M13,14.35a3.53,3.53,0,0,1-1.29,1.33.43.43,0,0,0-.1.09l0,0a1.11,1.11,0,0,1-.84.29c-1.52,0-4-1.55-6.16-3.84A16,16,0,0,1,1.41,7.58c-.53-1.3-.6-2.34-.19-2.77l0,0a.39.39,0,0,0,.08-.1A3.45,3.45,0,0,1,2.58,3.31,1,1,0,0,1,3,3.23c.21,0,.33.1.54.33L4.88,5.5l0,.06A.34.34,0,0,1,5,6L3.3,7.58a.53.53,0,0,0-.09.66,18.74,18.74,0,0,0,2.32,3,19.13,19.13,0,0,0,2.8,2.46.45.45,0,0,0,.62-.09l1.49-1.78a.25.25,0,0,1,.17-.07.37.37,0,0,1,.25.12l.05.05,1.83,1.46A.78.78,0,0,1,13,14.35Zm.37-1.77-1.84-1.47a1.29,1.29,0,0,0-.9-.38,1.17,1.17,0,0,0-.86.37l0,0L8.52,12.58A17.71,17.71,0,0,1,6.21,10.5,18.37,18.37,0,0,1,4.25,8L5.62,6.75l0,0a1.39,1.39,0,0,0,0-1.87L4.25,2.92,4.2,2.86A1.65,1.65,0,0,0,3,2.21a2.07,2.07,0,0,0-.69.14A4.23,4.23,0,0,0,.55,4.08C-.17,4.86-.18,6.25.53,8a17.24,17.24,0,0,0,3.36,5c2.37,2.51,5.05,4.13,6.84,4.13a2,2,0,0,0,1.52-.58,4.32,4.32,0,0,0,1.63-1.83,1.78,1.78,0,0,0-.48-2Z" style="fill:#1c1f36;fill-rule:evenodd"/><path d="M12,7.75l-.33,0h-.2a1.49,1.49,0,0,0-.92.24,4.18,4.18,0,0,1-1.38.72,1.69,1.69,0,0,0,.3-.8A1.45,1.45,0,0,0,9.09,6.8L9,6.75A3.08,3.08,0,0,1,7.81,4.38C7.81,2.52,9.69,1,12,1s4.19,1.51,4.19,3.37S14.31,7.75,12,7.75ZM12,0C9.16,0,6.86,2,6.86,4.38A4.05,4.05,0,0,0,8.41,7.52a.38.38,0,0,1,.11.28c0,.31-.5.69-.68.83l-.16.14a.57.57,0,0,0-.15.58A.55.55,0,0,0,8,9.74a2.76,2.76,0,0,0,.57.06,4.33,4.33,0,0,0,2.57-1,.86.86,0,0,1,.37-.05H12c2.84,0,5.14-2,5.14-4.38S14.84,0,12,0Z" style="fill:#1c1f36;fill-rule:evenodd"/><path d="M9.88,3.66a.7.7,0,0,0-.68.72.68.68,0,1,0,1.35,0A.69.69,0,0,0,9.88,3.66Z" style="fill:#1c1f36"/><ellipse cx="12.08" cy="4.38" rx="0.67" ry="0.72" style="fill:#1c1f36"/><path d="M14.28,3.66a.69.69,0,0,0-.67.72.68.68,0,1,0,1.35,0A.7.7,0,0,0,14.28,3.66Z" style="fill:#1c1f36"/></g></g></svg>