<svg xmlns="http://www.w3.org/2000/svg" viewBox="0 0 18.58 14.24"><title>icon-form-dark-email</title><g id="Layer_2" data-name="Layer 2"><g id="Layer_1-2" data-name="Layer 1"><path d="M16.39,13H2.19a1,1,0,0,1-.76-.38L6,8,7,9a3.19,3.19,0,0,0,4.6,0l1-1.06,4.53,4.67A1,1,0,0,1,16.39,13ZM5.13,7.12,1.19,11.18V3.06ZM2.19,1.21h14.2a1,1,0,0,1,.76.38l-6.4,6.58a2,2,0,0,1-2.93,0L1.43,1.59A1,1,0,0,1,2.19,1.21ZM13.45,7.12l3.94-4.06v8.12ZM16.39,0H2.19A2.23,2.23,0,0,0,0,2.25V12a2.23,2.23,0,0,0,2.19,2.25h14.2A2.23,2.23,0,0,0,18.58,12V2.25A2.23,2.23,0,0,0,16.39,0Z" style="fill:#1c1f36;fill-rule:evenodd"/></g></g></svg>