<svg xmlns="http://www.w3.org/2000/svg" viewBox="0 0 239.3 239.3"><title>img-lawyer-sm-him-c</title><g id="Layer_2" data-name="Layer 2"><g id="objects"><rect width="239.3" height="239.3" style="fill:#ededed"/><path d="M100.24,151.16C57.31,170,44.43,180,39.34,184.52c-7.84,6.94-12.18,32.82-16.81,54.78H216.77c-4.62-22-9-47.84-16.81-54.78-5.09-4.51-17.49-14.28-60.42-33.1Z" style="fill:#fff;fill-rule:evenodd"/><path d="M100.23,151.16C57.31,170,44.43,180,39.34,184.52c-7.84,6.94-12.18,32.82-16.81,54.78H216.77c-4.62-22-9-47.84-16.81-54.78-5.09-4.51-17.49-14.28-60.42-33.1Z" style="fill:#949ca0;fill-rule:evenodd"/><path d="M98.81,113.65v47.58c11.46,13.55,30.22,14,41.69,0V113.65C140.5,88,98.81,88,98.81,113.65Z" style="fill:#f6f6f6;fill-rule:evenodd"/><ellipse cx="79.97" cy="95.23" rx="7" ry="12.1" transform="translate(-25.77 29.79) rotate(-18.22)" style="fill:#f6f6f6"/><ellipse cx="159.15" cy="95.23" rx="12.1" ry="7" transform="translate(18.9 216.59) rotate(-71.77)" style="fill:#f6f6f6"/><path d="M110.69,181.23l5,7.82h7.83l5.05-7.82-8.86-9.65Z" style="fill:#343434;fill-rule:evenodd"/><polygon points="115.74 189.05 108.55 239.3 130.75 239.3 123.56 189.05 115.74 189.05" style="fill:#343434;fill-rule:evenodd"/><path d="M98.81,145.5,97,152.59l5.1,36.91,17.67-17.92Z" style="fill:#ededed;fill-rule:evenodd"/><path d="M98.81,136.69v1.5s10.65,12.64,20.8,13.09,20.88-12.24,20.88-12.24v-2.31" style="opacity:0.2"/><path d="M119.69,28.22c-64.12,0-39.55,87.84-35.36,94.57,4.62,7.42,25,23.78,35.36,23.78S150.43,130.2,155,122.78C159.24,116.05,183.81,28.22,119.69,28.22Z" style="fill:#f6f6f6;fill-rule:evenodd"/><path d="M149.26,30.27c-22.09-19.49-65.36,5.4-75.45,19.6,4.07,14.28,2.09,32.48,5.08,52.75,0,0,0-.06,0-.09,0,.2.08.41.13.63a6.24,6.24,0,0,0,.47.76c.11.19.89,0,1.15-.14a.31.31,0,0,0,.14-.27c.12-1.79,0-5.34,0-5.38-.24-2.79.16-5.62-.25-8.35,2-12.78.39-13.32,7.37-26.08a51.31,51.31,0,0,1,4.83-5.83c11.66-4.27,15.72,2.84,26.72,7.33C123.68,66.91,130,67,134.67,67c7.25,0,14.28-8,14.42-9.63,8.71,13.47,9.61,23.09,12.17,34.66-.35,2-.73,4-.9,6.08,0,0-.11,3.59,0,5.38a.32.32,0,0,0,.14.27c.26.13,1,.33,1.15.14a6.25,6.25,0,0,0,.47-.76,10.42,10.42,0,0,0,.28-2.2c.13-1,.31-2.09.45-3.19C166.19,85.26,172.33,35.64,149.26,30.27ZM116.43,47l-1.08-.32c.54.13,1.07.27,1.61.42Z" style="fill:#bfbfbf"/><path d="M140.5,145.5l1.44,7-4.79,37.4-17.38-18.29Z" style="fill:#ededed;fill-rule:evenodd"/><polyline points="98.81 145.5 119.76 171.58 140.5 145.5 140.5 144.88 119.76 170.84 98.81 144.88 98.81 145.5" style="opacity:0.05"/><polygon points="115.74 189.05 123.56 189.05 123.6 189.31 115.7 189.31 115.74 189.05" style="fill-rule:evenodd;opacity:0.1"/></g></g></svg>