<svg xmlns="http://www.w3.org/2000/svg" viewBox="0 0 239.3 239.3"><title>img-lawyer-sm-him-b</title><g id="Layer_2" data-name="Layer 2"><g id="objects"><rect width="239.3" height="239.3" style="fill:#ededed"/><path d="M100.24,151.16C57.31,170,44.43,180,39.34,184.52c-7.84,6.94-12.18,32.82-16.81,54.78H216.77c-4.62-22-9-47.84-16.81-54.78-5.09-4.51-17.49-14.28-60.42-33.1Z" style="fill:#fff;fill-rule:evenodd"/><path d="M100.23,151.16C57.31,170,44.43,180,39.34,184.52c-7.84,6.94-12.18,32.82-16.81,54.78H216.77c-4.62-22-9-47.84-16.81-54.78-5.09-4.51-17.49-14.28-60.42-33.1Z" style="fill:#858585;fill-rule:evenodd"/><path d="M98.81,113.65v47.58c11.46,13.55,30.22,14,41.69,0V113.65C140.5,88,98.81,88,98.81,113.65Z" style="fill:#f6f6f6;fill-rule:evenodd"/><ellipse cx="79.97" cy="95.23" rx="7" ry="12.1" transform="translate(-25.77 29.79) rotate(-18.22)" style="fill:#f6f6f6"/><ellipse cx="159.15" cy="95.23" rx="12.1" ry="7" transform="translate(18.9 216.58) rotate(-71.77)" style="fill:#f6f6f6"/><path d="M119.76,171.58s-29.09,6.94-29.09,8.7,11.07,59,11.07,59h39.49l4.53-58.77Z" style="fill:#343434;fill-rule:evenodd"/><polygon points="98.81 151.79 98.81 161.23 107.86 239.3 92.29 239.3 75.17 204.53 91.52 193.63 71.54 184.29 89.91 155.78 98.81 151.79" style="fill:#1a1a1a;fill-rule:evenodd"/><polygon points="140.5 151.84 140.5 161.23 131.35 239.3 146.92 239.3 164.05 204.53 147.7 193.63 167.68 184.29 151.35 156.66 140.5 151.84" style="fill:#1b1b1b;fill-rule:evenodd"/><path d="M110.69,181.23l5,7.82h7.83l5.05-7.82-8.86-9.65Z" style="fill:#858585;fill-rule:evenodd"/><polygon points="115.74 189.05 108.55 239.3 130.75 239.3 123.56 189.05 115.74 189.05" style="fill:#858585;fill-rule:evenodd"/><path d="M98.81,145.5,97,152.59l5.1,36.91,17.67-17.92Z" style="fill:#343434;fill-rule:evenodd"/><path d="M98.81,136.69v1.5s10.65,12.64,20.8,13.09,20.88-12.24,20.88-12.24v-2.31" style="opacity:0.2"/><path d="M119.69,28.22c-64.12,0-39.55,87.84-35.36,94.57,4.62,7.42,25,23.78,35.36,23.78S150.43,130.2,155,122.78C159.24,116.05,183.81,28.22,119.69,28.22Z" style="fill:#f6f6f6;fill-rule:evenodd"/><path d="M89.66,24.71c22.63-19.49,67,5.4,77.3,19.6-4.17,14.28-2.14,32.48-5.21,52.75,0,0,0-.06,0-.09,0,.2-.08.41-.13.63a6.2,6.2,0,0,1-.49.76c-.11.19-.91,0-1.18-.14a.31.31,0,0,1-.14-.27c-.12-1.79,0-5.34,0-5.38.24-2.79-.16-5.62.25-8.35-2.08-12.78-.4-13.32-7.56-26.08a51.69,51.69,0,0,0-5-5.83c-11.94-4.27-16.1,2.84-27.37,7.33-4.31,1.72-10.8,1.83-15.57,1.83-7.43,0-14.62-8-14.77-9.63C80.91,65.31,80,74.93,77.37,86.5c.36,2,.75,4,.92,6.08,0,0,.12,3.59,0,5.38a.31.31,0,0,1-.15.27c-.27.13-1.07.33-1.18.14a6.25,6.25,0,0,1-.49-.76,10.19,10.19,0,0,1-.28-2.2c-.14-1-.32-2.09-.46-3.19C72.31,79.71,66,30.09,89.66,24.71Zm33.63,16.75,1.11-.32c-.55.13-1.1.27-1.65.42Z" style="fill:#606060"/><path d="M140.5,145.5l1.44,7-4.79,37.4-17.38-18.29Z" style="fill:#343434;fill-rule:evenodd"/><polyline points="98.81 145.5 119.76 171.58 140.5 145.5 140.5 144.88 119.76 170.84 98.81 144.88 98.81 145.5" style="opacity:0.05"/><polygon points="115.74 189.05 123.56 189.05 123.6 189.31 115.7 189.31 115.74 189.05" style="fill-rule:evenodd;opacity:0.1"/><path d="M161.39,93.22c-.32,1.2-.66,2.26-.66,2.26s-5.75,19.57-10.67,25.64c-9.52,11.74-21.94,19-30.4,19.06s-20.57-6.56-30.19-18c-3.81-4.54-10.79-25-10.91-26.66A22.55,22.55,0,0,0,78,92.36c-1.29,0-1.33,8.68-1.33,8.68C78.63,111.2,80,117.89,84,123.46c6.37,8.9,24.35,23,35.26,23s28.9-14.07,35.26-23c4-5.62,5.12-13.1,7.33-23.64C161.84,99.82,162.39,93.3,161.39,93.22Z" style="fill:#606060"/><path d="M139.35,119.47c-1.48-3.12-13.44-7.35-15.59-8.14s-3.68,2-3.68,2-1.53-2.76-3.68-2-14.11,5-15.59,8.14-2.2,5.28-2.2,7.42v9.74a5.88,5.88,0,0,0,3.34-.79c1.22-.92,2.61-3.55,2.61-6.82a6.68,6.68,0,0,1,5.32-6.49c3.08-.62,10.2-1.81,10.2-3.75,0,1.93,7.61,3.28,10.2,3.75A6.62,6.62,0,0,1,135.6,129c0,3.27,1.39,5.89,2.61,6.82a5.88,5.88,0,0,0,3.34.79v-9.74C141.55,124.75,140.83,122.59,139.35,119.47Z" style="fill:#606060;fill-rule:evenodd"/><path d="M140.05,106.48c.36,0,.73,0,1.12-.06,10.43-.87,13-5.56,14.17-11.48,1.29-6.5,1.37-8.77,3.05-9.36,1.23-.44,1.53-1.9,1.49-3.59s-.1-1.87-2.13-2.58c-1.61-.56-10.52-1.37-17.2-.95l0,1.75c5.26-.29,10.34.35,11.81,1.3,3.35,2.17,2.37,12.63-.45,17.82-2,3.6-7.14,5.43-11.81,5.51Zm-19.49-24.6c-2.3.06-11.72-2.66-18.43-3.24-.48,0-1-.08-1.47-.11l0,1.75c5.45.25,11.09,1.48,13,4.39,3.17,4.77-2.53,16.44-7.68,19a13.5,13.5,0,0,1-5.8,1.22l0,1.65c9,0,12.35-6.49,13.47-8.66,2.1-4.08,1.66-9.71,6.83-9.72s4.48,5.51,6.32,9.59c1,2.2,3.92,9,13.28,8.69l0-1.65a13.31,13.31,0,0,1-6.11-1.19c-5-2.57-10-14.21-6.52-19,2.09-2.89,7.68-4.15,13.08-4.44l0-1.75-1.22.09C133.31,79.1,126,81.74,120.56,81.88Zm-19.89-3.35c-6.62-.35-15.38.48-17,1-2.08.72-2.15.9-2.29,2.6s.08,3.15,1.27,3.58c1.64.59,1.59,2.86,2.49,9.35.81,5.92,3.09,10.59,13.47,11.41.53,0,1,.06,1.55.07l0-1.65c-4.77,0-10.08-1.77-11.87-5.46-2.51-5.18-2.86-15.63.64-17.82,1.51-.95,6.51-1.6,11.68-1.36Z" style="fill:#858585;fill-rule:evenodd"/></g></g></svg>