<svg xmlns="http://www.w3.org/2000/svg" viewBox="0 0 239.3 239.3"><title>img-lawyer-sm-her-a</title><g id="Layer_2" data-name="Layer 2"><g id="objects"><rect width="239.3" height="239.3" style="fill:#ededed"/><path d="M106.06,50.35c3.95-7.26,35.39-13.67,48.22,12.16s6.37,34.88,13.44,44-9.61,79.69-49.14,79.46c-42.25-.25-51.46-67.75-43.06-81.42S76.59,50.33,106.06,50.35Z" style="fill:#bfbfbf;fill-rule:evenodd"/><path d="M137.06,170.48c-.36.56-35.55,1.12-35.94,1.68-11.05,15.77-34.93,18.67-53.93,22.92S27.56,223.31,27.53,239.3H211.77c0-16-.38-39.91-19.66-44.22S147.55,187,137.06,170.48Z" style="fill:#333;fill-rule:evenodd"/><path d="M138.13,172v8.68l-9,58.58H110l-8.91-57.95v-9.12l0-.07c.39-.56,35.58-1.12,35.94-1.68C137.4,171,137.75,171.53,138.13,172Z" style="fill:#fff;fill-rule:evenodd"/><path d="M101.19,132.8V178c9.25,18.92,25.85,19.41,36.92,0V132.8C138.11,108.38,101.19,108.38,101.19,132.8Z" style="fill:#f6f6f6;fill-rule:evenodd"/><path d="M168.34,111.69c-3.69-1.66-8.9,2.42-11.63,9.1s-2,13.45,1.72,15.11,8.9-2.41,11.64-9.1S172,113.35,168.34,111.69Z" style="fill:#f6f6f6;fill-rule:evenodd"/><path d="M71,111.69c3.69-1.66,8.9,2.41,11.64,9.1s2,13.45-1.72,15.11-8.9-2.41-11.64-9.1S67.31,113.35,71,111.69Z" style="fill:#f6f6f6;fill-rule:evenodd"/><path d="M101.19,155.29v1.26s11.58,11.57,18.29,11.57,18.63-11.7,18.63-11.7v-1.13Z" style="fill-rule:evenodd;opacity:0.2"/><path d="M119.69,164.08c-11.46,0-35.68-18.89-43.16-46C69,90.8,83.2,51.61,119.69,51.61s50.72,39.19,43.16,66.52C155.36,145.19,131.15,164.08,119.69,164.08Z" style="fill:#f6f6f6;fill-rule:evenodd"/><path d="M127.1,85.5c9,18.77,12.59,24.31,24.49,19.36s9.64,8.93,7.48,18.84c10.54-13.38,9.3-26.09,6-39-3.59-14.16-21.72-35.7-38.72-35.31-9.24-1-23.22.18-38.09,10.89C62.32,79,71,121,78,126,71.22,87,87.81,95,99.25,74.6,103,65.64,117.37,65.09,127.1,85.5Z" style="fill:#bfbfbf;fill-rule:evenodd"/><polygon points="110.13 239.28 94.56 239.28 93.49 239.3 77.43 224.65 93.78 213.75 73.8 204.4 87.03 183.86 92.17 175.89 101.07 171.9 101.07 181.35 109.98 239.3 110.13 239.28" style="fill:#ededed;fill-rule:evenodd"/><polygon points="145.34 213.12 161.68 224.02 145.59 239.3 144.56 239.28 128.99 239.28 129.14 239.3 138.13 180.72 138.13 171.33 148.99 176.15 153.78 184.27 165.31 203.78 145.34 213.12" style="fill:#ededed;fill-rule:evenodd"/></g></g></svg>