<svg xmlns="http://www.w3.org/2000/svg" viewBox="0 0 239.3 239.3"><title>img-lawyer-sm-him-a</title><g id="Layer_2" data-name="Layer 2"><g id="objects"><rect width="239.3" height="239.3" style="fill:#ededed"/><path d="M100.24,151.16C57.31,170,44.43,180,39.34,184.52c-7.84,6.94-12.18,32.82-16.81,54.78H216.77c-4.63-22-9-47.84-16.81-54.78-5.09-4.51-17.49-14.28-60.42-33.1Z" style="fill:#fff;fill-rule:evenodd"/><path d="M100.23,151.16C57.31,170,44.43,180,39.34,184.52c-7.84,6.94-12.18,32.82-16.81,54.78H216.77c-4.63-22-9-47.84-16.81-54.78-5.09-4.51-17.49-14.28-60.42-33.1Z" style="fill:#333;fill-rule:evenodd"/><path d="M98.81,113.65v47.58c11.46,13.55,30.22,14,41.69,0V113.65C140.49,88,98.81,88,98.81,113.65Z" style="fill:#f6f6f6;fill-rule:evenodd"/><ellipse cx="79.97" cy="95.23" rx="7" ry="12.1" transform="translate(-25.77 29.78) rotate(-18.22)" style="fill:#f6f6f6"/><ellipse cx="159.15" cy="95.23" rx="12.1" ry="7" transform="translate(18.91 216.59) rotate(-71.77)" style="fill:#f6f6f6"/><path d="M119.76,171.58s-29.09,6.94-29.09,8.7,11.07,59,11.07,59h39.49l4.53-58.77Z" style="fill:#c4c4c4;fill-rule:evenodd"/><polygon points="98.81 151.79 98.81 161.23 107.86 239.3 92.29 239.3 75.17 204.53 91.52 193.63 71.54 184.29 89.91 155.78 98.81 151.79" style="fill:#1a1a1a;fill-rule:evenodd"/><polygon points="140.49 151.84 140.49 161.23 131.35 239.3 146.92 239.3 164.05 204.53 147.7 193.63 167.68 184.29 151.35 156.66 140.49 151.84" style="fill:#1b1b1b;fill-rule:evenodd"/><path d="M110.69,181.23l5,7.82h7.83l5-7.82-8.85-9.65Z" style="fill:#e3e3e3;fill-rule:evenodd"/><polygon points="115.74 189.05 108.55 239.3 130.75 239.3 123.56 189.05 115.74 189.05" style="fill:#e3e3e3;fill-rule:evenodd"/><path d="M98.81,145.5,97,152.59l5.1,36.91,17.67-17.92Z" style="fill:#fff;fill-rule:evenodd"/><path d="M98.81,136.69v1.5s10.65,12.64,20.8,13.09,20.88-12.24,20.88-12.24v-2.31" style="opacity:0.2"/><path d="M119.69,28.22c-64.12,0-39.55,87.84-35.36,94.57,4.62,7.42,25,23.78,35.36,23.78S150.43,130.2,155,122.78C159.24,116.05,183.81,28.22,119.69,28.22Z" style="fill:#f6f6f6;fill-rule:evenodd"/><path d="M148.45,30.27c-21.66-17-55.1-6.88-65.2,7.32-12.64,17.77-8.17,44.76-5.18,65,0,0,0-.06,0-.09,0,.2.08.41.13.63a6.18,6.18,0,0,0,.47.76c.11.19.89,0,1.15-.14a.31.31,0,0,0,.14-.27c.12-1.79,0-5.34,0-5.38-.24-2.79-.84-5.48-1.25-8.2,2-12.78,8-15.47,11.17-30.89.66-1,1.38-2,2.12-3a24.5,24.5,0,0,1,2.79-3.15,16.82,16.82,0,0,0,1.58-1.09c11.66-4.27,23.67.85,34.68,5.34,4.21,1.72,8.93,3.75,13.57,3.39a3.72,3.72,0,0,0,3.65-3.13c5.27,15.77,9.61,23.09,12.17,34.66-.35,2-.73,4-.9,6.08,0,0-.11,3.59,0,5.38a.31.31,0,0,0,.14.27c.26.13,1,.33,1.15.14a6.24,6.24,0,0,0,.47-.76,10.36,10.36,0,0,0,.28-2.2c.13-1,.31-2.09.45-3.19C165.38,85.26,171.52,35.64,148.45,30.27ZM115.63,47l-1.08-.32c.54.13,1.07.27,1.61.42Z" style="fill:#606060"/><path d="M140.49,145.5l1.44,7-4.79,37.4-17.38-18.29Z" style="fill:#fff;fill-rule:evenodd"/><polyline points="98.81 145.5 119.76 171.58 140.49 145.5 140.49 144.88 119.76 170.84 98.81 144.88 98.81 145.5" style="opacity:0.05"/><polygon points="115.74 189.05 123.56 189.05 123.6 189.31 115.7 189.31 115.74 189.05" style="fill-rule:evenodd;opacity:0.1"/></g></g></svg>