<svg xmlns="http://www.w3.org/2000/svg" viewBox="0 0 239.3 239.3"><title>img-lawyer-sm-her-b</title><g id="Layer_2" data-name="Layer 2"><g id="objects"><rect width="239.3" height="239.3" style="fill:#ededed"/><path d="M102.72,50.91C107.27,43,143.49,36,158.27,64.12s7.34,37.91,15.49,47.81.48,32.65-5.19,34.64-3.39,9.86-.63,13.24c11.79,14.42-5.26,38.74-50.79,38.49-48.67-.27-58.21-28.54-45.74-37.36,4.07-2.88,5.65-8.4,1.19-13.27s-14.73-23-5-37.86S68.78,50.89,102.72,50.91Z" style="fill:gray;fill-rule:evenodd"/><path d="M137.06,166.48c-.36.56-35.55,1.12-35.94,1.68-11.05,15.77-34.93,22.67-53.93,26.92S27.56,223.31,27.53,239.3H211.77c0-16-.38-39.91-19.66-44.22S147.55,183,137.06,166.48Z" style="fill:#858585;fill-rule:evenodd"/><path d="M101.19,132.8V178c9.25,18.92,25.85,19.41,36.92,0V132.8C138.11,108.39,101.19,108.39,101.19,132.8Z" style="fill:#f5f5f5;fill-rule:evenodd"/><path d="M168.34,111.69c-3.69-1.66-8.9,2.42-11.63,9.1s-2,13.45,1.72,15.11,8.9-2.41,11.64-9.1S172,113.35,168.34,111.69Z" style="fill:#f5f5f5;fill-rule:evenodd"/><path d="M71,111.69c3.69-1.66,8.9,2.41,11.64,9.1s2,13.45-1.72,15.11-8.9-2.41-11.64-9.1S67.31,113.35,71,111.69Z" style="fill:#f5f5f5;fill-rule:evenodd"/><path d="M101.19,155.3v1.26s11.58,11.57,18.29,11.57,18.63-11.7,18.63-11.7V155.3Z" style="fill-rule:evenodd;opacity:0.2"/><path d="M119.69,164.08c-11.46,0-35.68-18.89-43.16-46C69,90.8,83.2,51.61,119.69,51.61s50.72,39.19,43.16,66.52C155.36,145.19,131.15,164.08,119.69,164.08Z" style="fill:#f5f5f5;fill-rule:evenodd"/><path d="M111.1,85.5c-9,18.77-12.59,24.31-24.49,19.36S77,113.79,79.13,123.7c-10.54-13.38-9.3-26.09-6-39C76.7,70.52,94.82,49,111.82,49.38c9.24-1,23.22.18,38.09,10.89,26,18.72,17.3,60.77,10.3,65.72C167,87,150.4,95,139,74.6,135.19,65.64,120.83,65.09,111.1,85.5Z" style="fill:gray;fill-rule:evenodd"/><rect x="117.24" y="192.6" width="3.78" height="46.7" style="fill:#fff"/><polygon points="101.19 168.12 88.02 180.16 104.77 206.16 119.23 192.45 101.19 168.12" style="fill:#fff;fill-rule:evenodd"/><polygon points="138.11 168.03 151.28 180.59 133.69 206.16 119.23 192.45 138.11 168.03" style="fill:#fff;fill-rule:evenodd"/><path d="M139.7,132.22c.36,0,.74,0,1.12-.06,10.48-.88,13.06-5.58,14.23-11.53,1.3-6.53,1.38-8.8,3.07-9.4,1.23-.45,1.54-1.9,1.5-3.61s-.1-1.88-2.14-2.59c-1.62-.57-10.56-1.38-17.27-1l0,1.76c5.29-.29,10.38.35,11.86,1.3,3.36,2.18,2.38,12.69-.45,17.9-2,3.62-7.17,5.45-11.87,5.53Zm-19.58-24.71c-2.31.06-11.77-2.67-18.5-3.25-.48,0-1-.08-1.48-.11l0,1.76c5.47.25,11.13,1.49,13.07,4.41,3.18,4.79-2.54,16.51-7.71,19.12a13.58,13.58,0,0,1-5.82,1.22l0,1.66c9.06,0,12.41-6.52,13.52-8.7,2.11-4.1,1.67-9.76,6.86-9.77s4.5,5.54,6.35,9.64c1,2.21,3.94,9,13.34,8.73l0-1.65a13.34,13.34,0,0,1-6.14-1.19c-5-2.59-10-14.27-6.55-19.08,2.09-2.9,7.72-4.17,13.14-4.46l0-1.76-1.22.09C132.92,104.72,125.57,107.37,120.12,107.51Zm-20-3.36c-6.64-.35-15.45.48-17.07,1-2.09.72-2.15.91-2.3,2.61s.08,3.16,1.28,3.6c1.65.59,1.6,2.87,2.5,9.39.81,5.94,3.1,10.63,13.53,11.46.53,0,1,.06,1.55.07l0-1.66c-4.79,0-10.12-1.77-11.92-5.48-2.52-5.2-2.87-15.7.64-17.9,1.51-.95,6.54-1.61,11.73-1.37Z" style="fill:#858585;fill-rule:evenodd"/><polygon points="101.19 168.12 119.23 192.45 138.11 168.03 138.09 167.52 119.23 191.76 101.19 167.52 101.19 168.12" style="fill-rule:evenodd;opacity:0.05"/></g></g></svg>